Coordinates
version=1
nRows=6
nColumns=46
inDegrees=yes

Units are S.I. units (second, meters, Newtons, ...)
Angles are in degrees.

endheader
time	pelvis_tilt	pelvis_list	pelvis_rotation	pelvis_tx	pelvis_ty	pelvis_tz	bb_angle	bb_tx	bb_ty	bb_tz	hip_flexion_r	hip_adduction_r	hip_rotation_r	knee_angle_r	knee_angle_r_beta	ankle_angle_r	subtalar_angle_r	mtp_angle_r	crank_angle_r	hip_flexion_l	hip_adduction_l	hip_rotation_l	knee_angle_l	knee_angle_l_beta	ankle_angle_l	subtalar_angle_l	mtp_angle_l	crank_angle_l	lumbar_extension	lumbar_bending	lumbar_rotation	arm_flex_r	arm_add_r	arm_rot_r	elbow_flex_r	pro_sup_r	wrist_flex_r	wrist_dev_r	arm_flex_l	arm_add_l	arm_rot_l	elbow_flex_l	pro_sup_l	wrist_flex_l	wrist_dev_l
      5.00500000	    -13.12548173	      5.51640928	      2.00983627	      0.18294014	      1.13472659	     -0.20009864	      0.00000000	      0.50000000	      0.00000000	      0.25000000	     37.63048613	     -6.72264099	      6.83734488	     24.57587926	      0.42893001	     -3.76534314	    -11.59492397	      0.00000000	      0.00000000	     69.28585352	      5.97469603	      7.93332528	    104.76407631	      1.82847807	      2.15490006	    -10.04455559	      0.00000000	      0.00000000	    -65.90874925	     -6.21255883	    -16.01602320	     82.62773079	    -10.75167200	     32.41691526	     56.94054960	     46.72429614	      0.00000000	      0.00000000	     87.51967039	    -29.69290521	     36.63357540	     70.75665357	     49.51756813	      0.00000000	      0.00000000
      5.01000000	    -13.72702553	      5.93175409	      2.69831321	      0.18315332	      1.13447945	     -0.19909162	      0.00000000	      0.50000000	      0.00000000	      0.25000000	     36.69782901	     -7.57650847	      6.02595676	     22.68282505	      0.39588998	     -4.84977232	    -10.59252685	      0.00000000	      0.00000000	     71.13220825	      6.58285145	      7.74772500	    105.68535257	      1.84455737	      2.79369316	     -9.98831424	      0.00000000	      0.00000000	    -65.41672279	     -6.57973954	    -17.01026724	     82.18178209	    -10.85022690	     32.44722266	     56.71087705	     46.71441649	      0.00000000	      0.00000000	     87.73889544	    -29.35970756	     36.73624317	     70.80102068	     49.51764759	      0.00000000	      0.00000000
      5.01500000	    -14.07725801	      6.24447181	      3.60994333	      0.18360018	      1.13483258	     -0.19852489	      0.00000000	      0.50000000	      0.00000000	      0.25000000	     35.38088821	     -8.49857530	      4.70004257	     20.73747522	      0.36193722	     -6.03977755	     -9.41583757	      0.00000000	      0.00000000	     72.73631172	      7.22910621	      7.68190274	    106.49265583	      1.85864747	      3.46284284	     -9.14771215	      0.00000000	      0.00000000	    -65.10410518	     -6.57995720	    -18.01385457	     81.61406463	    -10.44409840	     32.10335395	     56.18255047	     46.70007617	      0.00000000	      0.00000000	     87.93860390	    -29.15344647	     37.21513176	     70.27815920	     49.40269973	      0.00000000	      0.00000000
      5.02000000	    -14.50487308	      6.52475987	      4.22019609	      0.18381287	      1.13501046	     -0.19746343	      0.00000000	      0.50000000	      0.00000000	      0.25000000	     34.29374445	     -9.15919323	      3.59555327	     18.98771446	      0.33139813	     -7.12421137	     -8.24890185	      0.00000000	      0.00000000	     74.47084794	      7.34424567	      7.42629284	    107.20407810	      1.87106413	      4.07346831	     -8.09897456	      0.00000000	      0.00000000	    -64.75591676	     -6.86352346	    -18.85871321	     81.16746155	    -10.22204270	     31.90407246	     55.72474043	     46.69548850	      0.00000000	      0.00000000	     88.13562175	    -28.91247449	     37.58036954	     70.03382350	     49.32317587	      0.00000000	      0.00000000
      5.02500000	    -15.02408819	      6.76412967	      4.78402993	      0.18408932	      1.13512415	     -0.19653959	      0.00000000	      0.50000000	      0.00000000	      0.25000000	     33.37332188	     -9.73884707	      2.49034012	     17.40504046	      0.30377526	     -8.17863466	     -7.13300175	      0.00000000	      0.00000000	     76.22687259	      7.50379818	      7.22782599	    107.74353769	      1.88047948	      4.51304461	     -7.29931237	      0.00000000	      0.00000000	    -64.33198234	     -7.16522871	    -19.61648343	     80.72186010	    -10.07619917	     31.76587196	     55.33200175	     46.69805130	      0.00000000	      0.00000000	     88.29303723	    -28.63044412	     37.96285752	     69.83002562	     49.25449346	      0.00000000	      0.00000000
      5.03000000	    -15.53161399	      7.04605314	      5.25108118	      0.18428646	      1.13536861	     -0.19556335	      0.00000000	      0.50000000	      0.00000000	      0.25000000	     32.56823036	    -10.27639233	      1.43209343	     16.05074640	      0.28013837	     -9.18269766	     -6.13739574	      0.00000000	      0.00000000	     77.92498626	      7.47760154	      6.81911929	    108.07565860	      1.88627608	      4.62078376	     -6.73306760	      0.00000000	      0.00000000	    -63.98860648	     -7.58195059	    -20.32663775	     80.35324446	    -10.10073819	     31.79413198	     55.09552059	     46.68893704	      0.00000000	      0.00000000	     88.44482740	    -28.28682894	     38.14925049	     69.85846245	     49.25039527	      0.00000000	      0.00000000
